<?xml version="1.0" encoding="utf-8"?>
<!-- Generator: Adobe Illustrator 27.2.0, SVG Export Plug-In . SVG Version: 6.00 Build 0)  -->
<svg version="1.1" id="Layer_1" xmlns="http://www.w3.org/2000/svg" xmlns:xlink="http://www.w3.org/1999/xlink" x="0px" y="0px"
	 viewBox="0 0 841.9 595.3" style="enable-background:new 0 0 841.9 595.3;" xml:space="preserve">
<style type="text/css">
	.st0{fill:#FFFFFF;}
	.st1{fill:none;}
	.st2{fill:url(#SVGID_1_);}
	.st3{fill:url(#SVGID_00000050642465630018501360000007624385954206176388_);}
	.st4{fill:url(#SVGID_00000098907620279456727280000014560588719578100913_);}
	.st5{fill:url(#SVGID_00000164492221375692213170000009660563432122543761_);}
</style>
<g>
	<g>
		<g>
			<path class="st0" d="M87.7,289H88c18.6,0,28-9.4,28-28s-9.4-28-28-28H23.4c-0.6,0-1.1,0.5-1.1,1.1v94.7c0,0.4,0.2,0.7,0.5,0.9
				c0.3,0.2,0.7,0.3,1.1,0.1l15.7-6.3c0.4-0.2,0.7-0.6,0.7-1.1V289h26.1L95,323.3c0.1,0.2,0.4,0.3,0.6,0.4l23.7,6.3
				c0.1,0,0.2,0,0.3,0c0.4,0,0.7-0.2,1-0.5c0.3-0.4,0.2-1-0.1-1.3L87.7,289z M40.5,248.5h44.4c3.6,0,6.6,1.2,9.2,3.8
				c2.6,2.6,3.8,5.6,3.8,9.1c0,3.6-1.2,6.6-3.8,9.1c-2.6,2.6-5.6,3.8-9.2,3.8H40.5V248.5z"/>
			<path class="st0" d="M359,233.1l-15.7,6.3c-0.4,0.2-0.7,0.6-0.7,1.1V306l-61.1-72.6c-0.2-0.3-0.5-0.4-0.9-0.4h-15.7
				c-0.6,0-1.1,0.5-1.1,1.1v94.6c0,0.4,0.2,0.7,0.5,0.9c0.3,0.2,0.7,0.3,1.1,0.1l15.7-6.3c0.4-0.2,0.7-0.6,0.7-1.1v-65.6l61.1,72.6
				c0.2,0.3,0.5,0.4,0.9,0.4h15.7c0.6,0,1.1-0.5,1.1-1.1v-94.6c0-0.4-0.2-0.7-0.5-0.9C359.7,233,359.3,233,359,233.1z"/>
			<path class="st0" d="M526,233.1l-17.6,6.3c-0.3,0.1-0.6,0.4-0.7,0.7l-24,65.8l-26.5-72.1c-0.2-0.4-0.6-0.7-1.1-0.7h-15.7
				c-0.5,0-0.9,0.3-1.1,0.7l-26.4,72.1l-24.1-65.8c-0.1-0.3-0.4-0.6-0.7-0.7l-17.5-6.3c-0.4-0.2-0.9,0-1.2,0.3
				c-0.3,0.3-0.4,0.8-0.3,1.2l34.8,94.7c0.2,0.4,0.6,0.7,1.1,0.7h15.7c0.5,0,0.9-0.3,1.1-0.7l26.5-72.1l26.4,72.1
				c0.2,0.4,0.6,0.7,1.1,0.7h15.7c0.5,0,0.9-0.3,1.1-0.7l34.8-94.7c0.2-0.4,0.1-0.9-0.3-1.2C526.9,233.1,526.4,233,526,233.1z"/>
			<path class="st0" d="M621.5,315.8c-0.2-0.4-0.6-0.6-1-0.6h-66.8V289h55.4c0.6,0,1.1-0.5,1.1-1.1v-12.6c0-0.6-0.5-1.1-1.1-1.1
				h-55.4v-26.2h65.3c0.4,0,0.8-0.2,1-0.6l6.3-12.6c0.2-0.4,0.2-0.8-0.1-1.1c-0.2-0.3-0.6-0.5-1-0.5h-88.4c-0.6,0-1.1,0.5-1.1,1.1
				v94.7c0,0.6,0.5,1.1,1.1,1.1h90c0.4,0,0.8-0.2,1-0.5c0.2-0.3,0.2-0.8,0.1-1.1L621.5,315.8z"/>
			<path class="st0" d="M718.1,315.8c-0.2-0.4-0.6-0.6-1-0.6H655v-74.7c0-0.5-0.3-0.9-0.7-1.1l-15.7-6.3c-0.3-0.1-0.7-0.1-1.1,0.1
				c-0.3,0.2-0.5,0.6-0.5,0.9v94.7c0,0.6,0.5,1.1,1.1,1.1h85.3c0.4,0,0.8-0.2,1-0.5c0.2-0.3,0.2-0.8,0.1-1.1L718.1,315.8z"/>
			<path class="st0" d="M819.5,328.4l-6.3-12.6c-0.2-0.4-0.6-0.6-1-0.6h-62.1v-74.7c0-0.5-0.3-0.9-0.7-1.1l-15.7-6.3
				c-0.3-0.1-0.7-0.1-1.1,0.1c-0.3,0.2-0.5,0.6-0.5,0.9v94.7c0,0.6,0.5,1.1,1.1,1.1h85.3c0.4,0,0.8-0.2,1-0.5
				C819.7,329.1,819.7,328.7,819.5,328.4z"/>
		</g>
		<path class="st1" d="M221.3,297.8c0-1,0-2.1,0-3L221.3,297.8C221.3,297.8,221.3,297.8,221.3,297.8z"/>
	</g>
	<g>
		
			<linearGradient id="SVGID_1_" gradientUnits="userSpaceOnUse" x1="7111.4102" y1="1343.8866" x2="7086.603" y2="1480.1091" gradientTransform="matrix(-1 0 0 -1 7258.75 1703.6923)">
			<stop  offset="0" style="stop-color:#01D1B6"/>
			<stop  offset="0.1665" style="stop-color:#0AB9C4"/>
			<stop  offset="0.3136" style="stop-color:#14A0D3"/>
			<stop  offset="0.3856" style="stop-color:#1E82C4"/>
			<stop  offset="0.4535" style="stop-color:#246DBA"/>
			<stop  offset="0.4978" style="stop-color:#2765B6"/>
			<stop  offset="0.5688" style="stop-color:#3153A4"/>
			<stop  offset="0.6813" style="stop-color:#3E3D8D"/>
			<stop  offset="0.7874" style="stop-color:#45307F"/>
			<stop  offset="0.8798" style="stop-color:#482B7A"/>
		</linearGradient>
		<path class="st2" d="M186.1,330.1c-16.3,0-32.7,0-49,0c-1.2,0-2.9-1.7-3.6-3c-13-24.5-8-55.7,11.9-75.3
			c11.6-11.5,25.7-17.6,41.9-18.8c0.8-0.1,1.6-0.1,2.4,0c0.3,0,0.7,0.1,1.3,0.2c0,10.6,0,21.1,0,31.9c-19,2.3-30.9,12.3-31.8,32.3
			C158.5,313,169.8,326.3,186.1,330.1z"/>
		
			<linearGradient id="SVGID_00000050656645566870699560000013064246489243086466_" gradientUnits="userSpaceOnUse" x1="7048.793" y1="1332.4694" x2="7023.9575" y2="1468.8446" gradientTransform="matrix(-1 0 0 -1 7258.75 1703.6923)">
			<stop  offset="0" style="stop-color:#01D1B6"/>
			<stop  offset="0.1665" style="stop-color:#0AB9C4"/>
			<stop  offset="0.3136" style="stop-color:#14A0D3"/>
			<stop  offset="0.3856" style="stop-color:#1E82C4"/>
			<stop  offset="0.4535" style="stop-color:#246DBA"/>
			<stop  offset="0.4978" style="stop-color:#2765B6"/>
			<stop  offset="0.5688" style="stop-color:#3153A4"/>
			<stop  offset="0.6813" style="stop-color:#3E3D8D"/>
			<stop  offset="0.7874" style="stop-color:#45307F"/>
			<stop  offset="0.8798" style="stop-color:#482B7A"/>
		</linearGradient>
		<path style="fill:url(#SVGID_00000050656645566870699560000013064246489243086466_);" d="M195.8,265.2c16.5,0,32.9,0,49.3,0
			c1,0,2.5,1.6,3.1,2.8c10.1,20.5,10.2,41.2-1,61.2c-11.4,20.3-29.2,31.3-52.5,33.2c-1.2,0.1-2.5,0-3.9,0c0-10.8,0-21.4,0-32.4
			c10.4-0.5,19.1-4.4,25.5-12.7c4.3-5.5,6.4-11.8,6.6-18.8C223.3,282.7,214.7,272.2,195.8,265.2z"/>
	</g>
</g>
</svg>
